<svg xmlns="http://www.w3.org/2000/svg" version="1.1" xmlns:xlink="http://www.w3.org/1999/xlink" width="1000" height="1000"><style>
    #light-icon {
      display: inline;
    }
    #dark-icon {
      display: none;
    }

    @media (prefers-color-scheme: dark) {
      #light-icon {
        display: none;
      }
      #dark-icon {
        display: inline;
      }
    }
  </style><g id="light-icon"><svg xmlns="http://www.w3.org/2000/svg" version="1.1" xmlns:xlink="http://www.w3.org/1999/xlink" width="1000" height="1000"><g><g transform="matrix(5.208333333333333,0,0,5.208333333333333,0,0)"><svg xmlns="http://www.w3.org/2000/svg" version="1.1" xmlns:xlink="http://www.w3.org/1999/xlink" width="192" height="192"><svg width="192" height="192" viewBox="0 0 192 192" fill="none" xmlns="http://www.w3.org/2000/svg">
<path fill-rule="evenodd" clip-rule="evenodd" d="M94.6869 26.1772C95.8489 25.8156 97.166 26.0014 98.2036 26.79L125.852 47.8015L125.898 37.5418C125.899 37.2681 125.93 37.0012 125.987 36.7442C126.291 34.9413 127.888 33.5708 129.804 33.5806L141.889 33.6424C142.532 33.6457 143.137 33.8045 143.669 34.0818C145.069 34.6591 146.046 36.026 146.031 37.6116L145.792 62.9554L164.503 77.1748C166.186 78.4535 166.497 80.8325 165.197 82.4884C163.898 84.1443 161.48 84.45 159.798 83.1713L155.303 79.755V162.177C155.303 164.269 153.579 165.965 151.453 165.965C151.307 165.965 151.163 165.957 151.021 165.941C150.876 165.958 150.729 165.966 150.58 165.966L40.0815 166C37.9556 166.001 36.2315 164.305 36.2308 162.213C36.2302 160.121 37.9531 158.424 40.079 158.424L86.1624 158.409V76.3922C86.1624 76.2126 86.1752 76.036 86.1997 75.863C86.183 75.7173 86.1745 75.5691 86.175 75.4189C86.182 73.3267 87.911 71.6362 90.0369 71.6431L144.861 71.8198L95.8374 34.5642L44.6351 73.8784C44.6757 74.1051 44.696 74.3387 44.6937 74.5771L44.3569 108.719C44.3363 110.811 42.5962 112.491 40.4704 112.47C38.3446 112.45 36.6381 110.738 36.6587 108.646L36.9433 79.7844L32.2172 83.4133C30.5411 84.7002 28.1223 84.4062 26.8146 82.7567C25.5069 81.1072 25.8056 78.7268 27.4817 77.4398L93.3975 26.8281C93.7939 26.5237 94.2319 26.3077 94.6869 26.1772ZM93.861 158.407L102.031 158.404V150.761C102.031 150.567 102.05 150.378 102.087 150.195C102.084 150.145 102.083 150.095 102.083 150.045C102.083 148.63 103.248 147.482 104.687 147.482H137.071C138.275 147.482 139.288 148.287 139.586 149.38C139.812 149.791 139.941 150.261 139.941 150.761V158.393L147.604 158.391V141.561H93.861V158.407ZM107.918 158.403L134.054 158.395V152.608H123.55V155.505C123.55 156.736 122.536 157.733 121.286 157.733H116.862C115.611 157.733 114.598 156.736 114.598 155.505V152.608H107.918V158.403ZM93.861 133.984H102.043C102.04 133.929 102.039 133.873 102.039 133.816L102.075 120.72C102.075 120.518 102.097 120.321 102.137 120.13C102.135 120.088 102.134 120.046 102.134 120.003C102.134 118.588 103.3 117.441 104.738 117.441H137.123C138.406 117.441 139.472 118.355 139.686 119.558C139.85 119.919 139.941 120.318 139.941 120.738V133.816C139.941 133.873 139.939 133.929 139.936 133.984H147.604V112.507H93.861V133.984ZM107.926 133.832C107.926 133.883 107.924 133.934 107.922 133.984H134.059C134.056 133.929 134.054 133.873 134.054 133.816V122.566H123.55V126.259C123.55 127.49 122.536 128.487 121.286 128.487H116.862C115.611 128.487 114.598 127.49 114.598 126.259V122.566H107.957L107.926 133.832ZM93.861 104.931H102.116L102.045 89.5068C102.044 89.3275 102.059 89.152 102.09 88.9815C102.086 88.9185 102.083 88.8549 102.083 88.7907C102.083 87.3754 103.248 86.2281 104.687 86.2281H137.071C138.342 86.2281 139.4 87.1246 139.628 88.31C139.799 88.676 139.895 89.0832 139.896 89.5125L139.932 104.931H147.604V79.4051L93.861 79.2319V104.931ZM108.004 104.931H134.045L134.013 91.3533H123.55V94.9693C123.55 96.2 122.536 97.1977 121.286 97.1977H116.862C115.611 97.1977 114.598 96.2 114.598 94.9693V91.3533H107.94L108.004 104.931ZM133.526 53.377C133.525 53.4606 133.522 53.5435 133.516 53.6257L138.148 57.146L138.298 41.2005L133.58 41.1763L133.526 53.377Z" fill="black"></path>
<path d="M79.0685 114.782C80.5158 113.25 82.9514 113.162 84.5086 114.586C86.0657 116.01 86.1548 118.407 84.7076 119.94L57.435 148.818C57.2 149.067 56.9386 149.277 56.6595 149.45C55.162 150.558 53.0262 150.451 51.6502 149.119L37.1799 135.108C35.6645 133.641 35.6445 131.242 37.1355 129.751C38.6264 128.26 41.0636 128.24 42.5791 129.707L54.2762 141.033L79.0685 114.782Z" fill="black"></path>
</svg></svg></g></g></svg></g><g id="dark-icon"><svg xmlns="http://www.w3.org/2000/svg" version="1.1" xmlns:xlink="http://www.w3.org/1999/xlink" width="1000" height="1000"><g><g transform="matrix(5.208333333333333,0,0,5.208333333333333,0,0)"><svg xmlns="http://www.w3.org/2000/svg" version="1.1" xmlns:xlink="http://www.w3.org/1999/xlink" width="192" height="192"><svg width="192" height="192" viewBox="0 0 192 192" fill="none" xmlns="http://www.w3.org/2000/svg">
<path fill-rule="evenodd" clip-rule="evenodd" d="M94.6869 26.1772C95.8489 25.8156 97.166 26.0014 98.2036 26.79L125.852 47.8015L125.898 37.5418C125.899 37.2681 125.93 37.0012 125.987 36.7442C126.291 34.9413 127.888 33.5708 129.804 33.5806L141.889 33.6424C142.532 33.6457 143.137 33.8045 143.669 34.0818C145.069 34.6591 146.046 36.026 146.031 37.6116L145.792 62.9554L164.503 77.1748C166.186 78.4535 166.497 80.8325 165.197 82.4884C163.898 84.1443 161.48 84.45 159.798 83.1713L155.303 79.755V162.177C155.303 164.269 153.579 165.965 151.453 165.965C151.307 165.965 151.163 165.957 151.021 165.941C150.876 165.958 150.729 165.966 150.58 165.966L40.0815 166C37.9556 166.001 36.2315 164.305 36.2308 162.213C36.2302 160.121 37.9531 158.424 40.079 158.424L86.1624 158.409V76.3922C86.1624 76.2126 86.1752 76.036 86.1997 75.863C86.183 75.7173 86.1745 75.5691 86.175 75.4189C86.182 73.3267 87.911 71.6362 90.0369 71.6431L144.861 71.8198L95.8374 34.5642L44.6351 73.8784C44.6757 74.1051 44.696 74.3387 44.6937 74.5771L44.3569 108.719C44.3363 110.811 42.5962 112.491 40.4704 112.47C38.3446 112.45 36.6381 110.738 36.6587 108.646L36.9433 79.7844L32.2172 83.4133C30.5411 84.7002 28.1223 84.4062 26.8146 82.7567C25.5069 81.1072 25.8056 78.7268 27.4817 77.4398L93.3975 26.8281C93.7939 26.5237 94.2319 26.3077 94.6869 26.1772ZM93.861 158.407L102.031 158.404V150.761C102.031 150.567 102.05 150.378 102.087 150.195C102.084 150.145 102.083 150.095 102.083 150.045C102.083 148.63 103.248 147.482 104.687 147.482H137.071C138.275 147.482 139.288 148.287 139.586 149.38C139.812 149.791 139.941 150.261 139.941 150.761V158.393L147.604 158.391V141.561H93.861V158.407ZM107.918 158.403L134.054 158.395V152.608H123.55V155.505C123.55 156.736 122.536 157.733 121.286 157.733H116.862C115.611 157.733 114.598 156.736 114.598 155.505V152.608H107.918V158.403ZM93.861 133.984H102.043C102.04 133.929 102.039 133.873 102.039 133.816L102.075 120.72C102.075 120.518 102.097 120.321 102.137 120.13C102.135 120.088 102.134 120.046 102.134 120.003C102.134 118.588 103.3 117.441 104.738 117.441H137.123C138.406 117.441 139.472 118.355 139.686 119.558C139.85 119.919 139.941 120.318 139.941 120.738V133.816C139.941 133.873 139.939 133.929 139.936 133.984H147.604V112.507H93.861V133.984ZM107.926 133.832C107.926 133.883 107.924 133.934 107.922 133.984H134.059C134.056 133.929 134.054 133.873 134.054 133.816V122.566H123.55V126.259C123.55 127.49 122.536 128.487 121.286 128.487H116.862C115.611 128.487 114.598 127.49 114.598 126.259V122.566H107.957L107.926 133.832ZM93.861 104.931H102.116L102.045 89.5068C102.044 89.3275 102.059 89.152 102.09 88.9815C102.086 88.9185 102.083 88.8549 102.083 88.7907C102.083 87.3754 103.248 86.2281 104.687 86.2281H137.071C138.342 86.2281 139.4 87.1246 139.628 88.31C139.799 88.676 139.895 89.0832 139.896 89.5125L139.932 104.931H147.604V79.4051L93.861 79.2319V104.931ZM108.004 104.931H134.045L134.013 91.3533H123.55V94.9693C123.55 96.2 122.536 97.1977 121.286 97.1977H116.862C115.611 97.1977 114.598 96.2 114.598 94.9693V91.3533H107.94L108.004 104.931ZM133.526 53.377C133.525 53.4606 133.522 53.5435 133.516 53.6257L138.148 57.146L138.298 41.2005L133.58 41.1763L133.526 53.377Z" fill="white"></path>
<path d="M79.0685 114.782C80.5158 113.25 82.9514 113.162 84.5086 114.586C86.0657 116.01 86.1548 118.407 84.7076 119.94L57.435 148.818C57.2 149.067 56.9386 149.277 56.6595 149.45C55.162 150.558 53.0262 150.451 51.6502 149.119L37.1799 135.108C35.6645 133.641 35.6445 131.242 37.1355 129.751C38.6264 128.26 41.0636 128.24 42.5791 129.707L54.2762 141.033L79.0685 114.782Z" fill="white"></path>
</svg></svg></g></g></svg></g></svg>