<?xml version="1.0" standalone="no"?>
<!DOCTYPE svg PUBLIC "-//W3C//DTD SVG 20010904//EN"
 "http://www.w3.org/TR/2001/REC-SVG-20010904/DTD/svg10.dtd">
<svg version="1.0" xmlns="http://www.w3.org/2000/svg"
 width="700.000000pt" height="700.000000pt" viewBox="0 0 700.000000 700.000000"
 preserveAspectRatio="xMidYMid meet">
<metadata>
Created by potrace 1.14, written by Peter Selinger 2001-2017
</metadata>
<g transform="translate(0.000000,700.000000) scale(0.100000,-0.100000)"
fill="#000000" stroke="none">
<path d="M0 3915 l0 -2515 78 0 c127 -1 3327 0 3332 0 3 0 0 4 -6 8 -18 12
-111 137 -170 226 -54 84 -164 300 -164 324 0 9 -257 12 -1250 12 l-1250 0 0
1943 0 1944 933 -1 932 -1 2 -435 c1 -239 2 -444 3 -456 l0 -21 644 0 644 0 4
21 c2 12 3 217 2 457 l0 436 933 0 933 0 0 -674 0 -673 28 -12 c153 -64 304
-149 430 -245 48 -37 89 -70 90 -75 19 -46 22 114 22 1122 l0 1130 -3085 0
-3085 0 0 -2515z"/>
<path d="M4729 4296 c-2 -2 -29 -6 -59 -10 -550 -61 -1070 -464 -1281 -991
-84 -212 -114 -369 -114 -605 0 -199 12 -287 60 -455 24 -85 76 -220 103 -270
32 -58 116 -200 121 -205 4 -3 26 -32 51 -65 55 -76 206 -226 287 -288 212
-162 489 -283 718 -314 22 -3 60 -9 84 -13 71 -13 318 -9 416 7 188 30 330 75
498 159 l107 53 329 -328 c187 -187 346 -337 369 -349 69 -36 137 -51 209 -47
152 8 268 86 336 225 28 59 31 74 32 160 0 87 -3 101 -33 164 -29 63 -63 99
-362 399 l-329 330 43 81 c80 151 142 340 171 521 13 86 15 420 2 470 -3 11
-13 56 -22 100 -96 469 -419 886 -857 1106 -126 63 -287 119 -393 136 -16 2
-46 8 -65 13 -19 4 -42 9 -50 10 -37 4 -367 10 -371 6z m362 -640 c246 -57
439 -179 583 -370 128 -169 194 -354 201 -561 14 -397 -197 -751 -553 -930
-323 -162 -736 -124 -1028 96 -340 255 -479 686 -353 1095 112 364 458 648
839 687 73 7 248 -2 311 -17z"/>
</g>
</svg>
